<mxfile host="app.diagrams.net" modified="2025-03-01T10:45:35.916Z" agent="Mozilla/5.0 (Windows NT 10.0; Win64; x64) AppleWebKit/537.36 (KHTML, like Gecko) Chrome/133.0.0.0 Safari/537.36" etag="11hDN0kKF2eNEvOzcyOl" version="24.6.5" type="device">
  <diagram name="‫עמוד-1‬" id="iU8JSRwZV7EqTuRYyMUr">
    <mxGraphModel dx="943" dy="383" grid="1" gridSize="10" guides="1" tooltips="1" connect="1" arrows="1" fold="1" page="1" pageScale="1" pageWidth="827" pageHeight="1169" math="0" shadow="0">
      <root>
        <mxCell id="0" />
        <mxCell id="1" parent="0" />
        <mxCell id="PhMBoYx-tqs4hiEqTtwT-6" style="edgeStyle=orthogonalEdgeStyle;rounded=0;orthogonalLoop=1;jettySize=auto;html=1;shadow=0;fillColor=#e1d5e7;strokeColor=#9673a6;" edge="1" parent="1" source="PhMBoYx-tqs4hiEqTtwT-1" target="PhMBoYx-tqs4hiEqTtwT-2">
          <mxGeometry relative="1" as="geometry" />
        </mxCell>
        <mxCell id="PhMBoYx-tqs4hiEqTtwT-7" style="edgeStyle=orthogonalEdgeStyle;rounded=0;orthogonalLoop=1;jettySize=auto;html=1;entryX=0.5;entryY=0;entryDx=0;entryDy=0;shadow=0;fillColor=#e1d5e7;strokeColor=#9673a6;" edge="1" parent="1" source="PhMBoYx-tqs4hiEqTtwT-1" target="PhMBoYx-tqs4hiEqTtwT-3">
          <mxGeometry relative="1" as="geometry" />
        </mxCell>
        <mxCell id="PhMBoYx-tqs4hiEqTtwT-11" style="edgeStyle=orthogonalEdgeStyle;rounded=0;orthogonalLoop=1;jettySize=auto;html=1;entryX=0.5;entryY=0;entryDx=0;entryDy=0;shadow=0;fillColor=#e1d5e7;strokeColor=#9673a6;" edge="1" parent="1" source="PhMBoYx-tqs4hiEqTtwT-1" target="PhMBoYx-tqs4hiEqTtwT-10">
          <mxGeometry relative="1" as="geometry" />
        </mxCell>
        <mxCell id="PhMBoYx-tqs4hiEqTtwT-18" style="edgeStyle=orthogonalEdgeStyle;rounded=0;orthogonalLoop=1;jettySize=auto;html=1;entryX=0.5;entryY=0;entryDx=0;entryDy=0;shadow=0;fillColor=#e1d5e7;strokeColor=#9673a6;" edge="1" parent="1" source="PhMBoYx-tqs4hiEqTtwT-1" target="PhMBoYx-tqs4hiEqTtwT-17">
          <mxGeometry relative="1" as="geometry" />
        </mxCell>
        <mxCell id="PhMBoYx-tqs4hiEqTtwT-30" style="edgeStyle=orthogonalEdgeStyle;rounded=0;orthogonalLoop=1;jettySize=auto;html=1;entryX=0.5;entryY=0;entryDx=0;entryDy=0;shadow=0;fillColor=#e1d5e7;strokeColor=#9673a6;" edge="1" parent="1" source="PhMBoYx-tqs4hiEqTtwT-1" target="PhMBoYx-tqs4hiEqTtwT-19">
          <mxGeometry relative="1" as="geometry">
            <Array as="points">
              <mxPoint x="480" y="120" />
            </Array>
          </mxGeometry>
        </mxCell>
        <mxCell id="PhMBoYx-tqs4hiEqTtwT-1" value="Button press by operator" style="whiteSpace=wrap;html=1;aspect=fixed;shadow=0;fillColor=#e1d5e7;strokeColor=#9673a6;" vertex="1" parent="1">
          <mxGeometry x="361" y="80" width="80" height="80" as="geometry" />
        </mxCell>
        <mxCell id="PhMBoYx-tqs4hiEqTtwT-2" value="Pipelines selection" style="rounded=0;whiteSpace=wrap;html=1;fillColor=#d5e8d4;strokeColor=#82b366;" vertex="1" parent="1">
          <mxGeometry x="90" y="190" width="110" height="50" as="geometry" />
        </mxCell>
        <mxCell id="PhMBoYx-tqs4hiEqTtwT-5" style="edgeStyle=orthogonalEdgeStyle;rounded=0;orthogonalLoop=1;jettySize=auto;html=1;entryX=0.5;entryY=0;entryDx=0;entryDy=0;" edge="1" parent="1" source="PhMBoYx-tqs4hiEqTtwT-3" target="PhMBoYx-tqs4hiEqTtwT-4">
          <mxGeometry relative="1" as="geometry" />
        </mxCell>
        <mxCell id="PhMBoYx-tqs4hiEqTtwT-14" style="edgeStyle=orthogonalEdgeStyle;rounded=0;orthogonalLoop=1;jettySize=auto;html=1;entryX=0.5;entryY=0;entryDx=0;entryDy=0;" edge="1" parent="1" source="PhMBoYx-tqs4hiEqTtwT-3" target="PhMBoYx-tqs4hiEqTtwT-13">
          <mxGeometry relative="1" as="geometry" />
        </mxCell>
        <mxCell id="PhMBoYx-tqs4hiEqTtwT-3" value="Get main tag from limelight" style="rounded=0;whiteSpace=wrap;html=1;fillColor=#d5e8d4;strokeColor=#82b366;" vertex="1" parent="1">
          <mxGeometry x="240" y="190" width="110" height="50" as="geometry" />
        </mxCell>
        <mxCell id="PhMBoYx-tqs4hiEqTtwT-4" value="change valid IDs to only this tag" style="rounded=0;whiteSpace=wrap;html=1;fillColor=#d5e8d4;strokeColor=#82b366;" vertex="1" parent="1">
          <mxGeometry x="310" y="280" width="80" height="50" as="geometry" />
        </mxCell>
        <mxCell id="PhMBoYx-tqs4hiEqTtwT-10" value="Y axis - driver control" style="rounded=0;whiteSpace=wrap;html=1;fillColor=#dae8fc;strokeColor=#6c8ebf;" vertex="1" parent="1">
          <mxGeometry x="527" y="370" width="73" height="60" as="geometry" />
        </mxCell>
        <mxCell id="PhMBoYx-tqs4hiEqTtwT-16" style="edgeStyle=orthogonalEdgeStyle;rounded=0;orthogonalLoop=1;jettySize=auto;html=1;entryX=0.5;entryY=0;entryDx=0;entryDy=0;" edge="1" parent="1" source="PhMBoYx-tqs4hiEqTtwT-13" target="PhMBoYx-tqs4hiEqTtwT-15">
          <mxGeometry relative="1" as="geometry" />
        </mxCell>
        <mxCell id="PhMBoYx-tqs4hiEqTtwT-13" value="Get tag angle from the field and flip it 180" style="rounded=0;whiteSpace=wrap;html=1;fillColor=#d5e8d4;strokeColor=#82b366;" vertex="1" parent="1">
          <mxGeometry x="200" y="280" width="80" height="50" as="geometry" />
        </mxCell>
        <mxCell id="PhMBoYx-tqs4hiEqTtwT-31" style="edgeStyle=orthogonalEdgeStyle;rounded=0;orthogonalLoop=1;jettySize=auto;html=1;entryX=0.25;entryY=0;entryDx=0;entryDy=0;" edge="1" parent="1" source="PhMBoYx-tqs4hiEqTtwT-15" target="PhMBoYx-tqs4hiEqTtwT-19">
          <mxGeometry relative="1" as="geometry">
            <Array as="points">
              <mxPoint x="240" y="430" />
              <mxPoint x="362" y="430" />
              <mxPoint x="362" y="350" />
              <mxPoint x="462" y="350" />
            </Array>
          </mxGeometry>
        </mxCell>
        <mxCell id="PhMBoYx-tqs4hiEqTtwT-15" value="Get current robot angle - angle result from tag" style="rounded=0;whiteSpace=wrap;html=1;fillColor=#d5e8d4;strokeColor=#82b366;" vertex="1" parent="1">
          <mxGeometry x="200" y="352" width="80" height="60" as="geometry" />
        </mxCell>
        <mxCell id="PhMBoYx-tqs4hiEqTtwT-17" value="X axis - limelight tx" style="rounded=0;whiteSpace=wrap;html=1;fillColor=#dae8fc;strokeColor=#6c8ebf;" vertex="1" parent="1">
          <mxGeometry x="610" y="370" width="70" height="60" as="geometry" />
        </mxCell>
        <mxCell id="PhMBoYx-tqs4hiEqTtwT-23" style="edgeStyle=orthogonalEdgeStyle;rounded=0;orthogonalLoop=1;jettySize=auto;html=1;entryX=0.5;entryY=0;entryDx=0;entryDy=0;" edge="1" parent="1" source="PhMBoYx-tqs4hiEqTtwT-19" target="PhMBoYx-tqs4hiEqTtwT-22">
          <mxGeometry relative="1" as="geometry" />
        </mxCell>
        <mxCell id="PhMBoYx-tqs4hiEqTtwT-19" value="Rotation -&amp;nbsp;&lt;div&gt;reef angle&lt;/div&gt;" style="rounded=0;whiteSpace=wrap;html=1;fillColor=#dae8fc;strokeColor=#6c8ebf;" vertex="1" parent="1">
          <mxGeometry x="445" y="370" width="70" height="60" as="geometry" />
        </mxCell>
        <mxCell id="PhMBoYx-tqs4hiEqTtwT-29" style="edgeStyle=orthogonalEdgeStyle;rounded=0;orthogonalLoop=1;jettySize=auto;html=1;entryX=0.5;entryY=0;entryDx=0;entryDy=0;" edge="1" parent="1" source="PhMBoYx-tqs4hiEqTtwT-22" target="PhMBoYx-tqs4hiEqTtwT-28">
          <mxGeometry relative="1" as="geometry" />
        </mxCell>
        <mxCell id="PhMBoYx-tqs4hiEqTtwT-22" value="Button release" style="ellipse;whiteSpace=wrap;html=1;aspect=fixed;fillColor=#e1d5e7;strokeColor=#9673a6;" vertex="1" parent="1">
          <mxGeometry x="350" y="490" width="80" height="80" as="geometry" />
        </mxCell>
        <mxCell id="PhMBoYx-tqs4hiEqTtwT-28" value="Return valid IDs to all tags" style="rounded=0;whiteSpace=wrap;html=1;fillColor=#d5e8d4;strokeColor=#82b366;" vertex="1" parent="1">
          <mxGeometry x="330" y="600" width="120" height="60" as="geometry" />
        </mxCell>
      </root>
    </mxGraphModel>
  </diagram>
</mxfile>
